<svg xmlns="http://www.w3.org/2000/svg" viewBox="0 0 96 96">
  <defs>
    <linearGradient id="g" x1="10" y1="14" x2="86" y2="84" gradientUnits="userSpaceOnUse">
      <stop stop-color="#6EE7FF"/>
      <stop offset="1" stop-color="#7C3AED"/>
    </linearGradient>
  </defs>
  <rect x="8" y="8" width="80" height="80" rx="22" fill="#0B1020"/>
  <path d="M48 16c17.673 0 32 14.327 32 32S65.673 80 48 80 16 65.673 16 48 30.327 16 48 16z" fill="none" stroke="url(#g)" stroke-width="6"/>
  <path d="M61.5 33.8c-2.4-2.0-5.6-3.2-9.6-3.2-6.7 0-11.1 3.3-11.1 8.4 0 4.8 3.2 7.2 10.1 8.6 5.5 1.1 6.7 2.4 6.7 4.3 0 2.4-2.3 3.9-6.0 3.9-3.8 0-7.0-1.3-9.4-3.7l-4.4 5.3c3.6 3.7 8.7 5.5 14.1 5.5 7.6 0 12.6-3.7 12.6-9.6 0-5.2-3.7-7.8-10.5-9.2-6.0-1.2-6.9-2.1-6.9-4.0 0-2.1 2.0-3.5 5.6-3.5 3.0 0 5.6 0.8 7.8 2.5l2.0-5.1z" fill="url(#g)"/>
  <path d="M28 74h24l16-16" fill="none" stroke="url(#g)" stroke-width="6" stroke-linecap="round" stroke-linejoin="round"/>
</svg>
